
<svg version="1.1"
     baseProfile="full"
     width="167" height="139"
     xmlns="http://www.w3.org/2000/svg">

	<polygon points="20 60, 158.5 60, 118 90" fill="pink" stroke="darkred" stroke-linecap="round" stroke-opacity="0.6"/>
	
	<text x="79" y="15" text-anchor="middle" style="font-style: italic;" font-size="7" font-weight="bold">B</text>
	<circle cx="78" cy="18" r="1.3" fill="grey"/>
	<line x1="78" y1="18" x2="20" y2="60" stroke="grey" stroke-width="0.7" stroke-linecap="round"/>
	<line x1="78" y1="18" x2="158.5" y2="60" stroke="grey" stroke-width="0.7" stroke-linecap="round"/>
	<line x1="78" y1="18" x2="101" y2="60" stroke="grey" stroke-width="0.7" stroke-linecap="round"/>
	<line x1="78" y1="18" x2="62.5" y2="60" stroke="grey" stroke-width="0.7" stroke-linecap="round"/>
	
	<text x="18" y="62" text-anchor="end" style="font-style: italic;" font-size="7" font-weight="bold">M</text>
	<circle cx="20" cy="60" r="1.3" fill="darkred"/>
	
	<text x="160" y="62" text-anchor="begin" style="font-style: italic;" font-size="7" font-weight="bold">N</text>
	<circle cx="158.5" cy="60" r="1.3" fill="darkred"/>
	
	<text x="147" y="139" text-anchor="begin" style="font-style: italic;" font-size="7" font-weight="bold">C</text>
	<circle cx="144" cy="137" r="1.3" fill="darkred"/>
	<line x1="100.8" y1="60" x2="144" y2="137" stroke="darkred" stroke-width="0.7" stroke-linecap="round"/>
	
	<text x="115" y="96" text-anchor="end" style="font-style: italic;" font-size="7" font-weight="bold">F</text>
	<circle cx="117.5" cy="90" r="1.3" fill="darkred"/>
	
	<text x="42" y="112" text-anchor="end" style="font-style: italic;" font-size="7" font-weight="bold">A</text>
	<circle cx="44" cy="110" r="1.3" fill="darkred"/>
	<line x1="62.5" y1="60" x2="44" y2="110" stroke="darkred" stroke-width="0.7" stroke-linecap="round"/>
	
	<text x="59.5" y="79" text-anchor="middle" style="font-style: italic;" font-size="7" font-weight="bold">E</text>
	<circle cx="58.2" cy="71.7" r="1.3" fill="darkred"/>
	
	<path d = "M 96 27, C 101 2, 60 2, 65 27" stroke-width="0.7" fill="transparent" stroke="grey" stroke-linecap="round"/>
	<polygon points="65 28, 63 23, 66 23" fill="grey" stroke-linecap="round"/>
	<line x1="65" y1="27" x2="63.3" y2="23.4" stroke="grey" stroke-width="0.7" stroke-linecap="round"/>
	<line x1="65" y1="27" x2="66" y2="23.4" stroke="grey" stroke-width="0.7" stroke-linecap="round"/>
	
	<text x="97" y="13" text-anchor="middle" style="font-style: italic;" font-size="7" font-weight="bold">3</text>
	<text x="101" y="13" text-anchor="middle" style="font-style: italic;" font-size="7" font-weight="bold">&#960;</text>
	<text x="105" y="13" text-anchor="middle" style="font-style: italic;" font-size="7" font-weight="bold">/</text>
	<text x="108.5" y="13" text-anchor="middle" style="font-style: italic;" font-size="7" font-weight="bold">2</text>
	<text x="112.5" y="13" text-anchor="middle" style="font-style: italic;" font-size="7" font-weight="bold">-</text>
	<text x="116.5" y="13" text-anchor="middle" style="font-style: italic;" font-size="7" font-weight="bold">&#966;</text>
	
	<path d = "M 81.4 24, C 81.6 26.5, 75.4 26.5, 75.8 24" stroke-width="0.7" fill="transparent" stroke="grey" stroke-linecap="round"/>
	<text x="79" y="31" text-anchor="middle" style="font-style: italic;" font-size="7" font-weight="bold">&#966;</text>
	
	<text x="69" y="31" text-anchor="middle" style="font-style: italic;" font-size="7" font-weight="bold">&#960;</text>
	<line x1="66" y1="32" x2="71" y2="32" stroke-width="0.5"  stroke="black" stroke-linecap="round"/>
	<text x="68" y="37.5" text-anchor="middle" style="font-style: italic;" font-size="7" font-weight="bold">4</text>
	
	<text x="93.2" y="31" text-anchor="middle" style="font-style: italic;" font-size="7" font-weight="bold">&#960;</text>
	<line x1="91" y1="32" x2="95" y2="32" stroke-width="0.5"  stroke="black" stroke-linecap="round"/>
	<text x="92" y="37.5" text-anchor="middle" style="font-style: italic;" font-size="7" font-weight="bold">4</text>
</svg>